<svg width="24" height="24" viewBox="0 0 24 24" fill="none" xmlns="http://www.w3.org/2000/svg">
<path d="M23 15.97C23 19.84 19.87 22.97 16 22.97L17.05 21.22" stroke="url(#paint0_linear_161_4823)" strokeWidth="1.5" strokeLinecap="round" strokeLinejoin="round"/>
<path d="M1 7.96997C1 4.09997 4.13 0.969971 8 0.969971L6.95 2.71997" stroke="url(#paint1_linear_161_4823)" strokeWidth="1.5" strokeLinecap="round" strokeLinejoin="round"/>
<path d="M6.61963 13.07H9.42963C10.0496 13.07 10.5596 13.63 10.5596 14.2C10.5596 14.82 10.0596 15.33 9.42963 15.33H6.61963V13.07Z" stroke="url(#paint2_linear_161_4823)" strokeWidth="1.5" strokeMiterlimit="10" strokeLinecap="round" strokeLinejoin="round"/>
<path d="M6.61963 15.33H9.83963C10.5496 15.33 11.1296 15.83 11.1296 16.46C11.1296 17.08 10.5496 17.59 9.83963 17.59H6.61963V15.33Z" stroke="url(#paint3_linear_161_4823)" strokeWidth="1.5" strokeMiterlimit="10" strokeLinecap="round" strokeLinejoin="round"/>
<path d="M8.41943 17.58V18.7" stroke="url(#paint4_linear_161_4823)" strokeWidth="1.5" strokeMiterlimit="10" strokeLinecap="round" strokeLinejoin="round"/>
<path d="M8.41943 11.95V13.07" stroke="url(#paint5_linear_161_4823)" strokeWidth="1.5" strokeMiterlimit="10" strokeLinecap="round" strokeLinejoin="round"/>
<path d="M14.8498 15.33C14.8498 18.74 12.0898 21.5 8.67977 21.5C5.26977 21.5 2.50977 18.74 2.50977 15.33C2.50977 11.92 5.26977 9.15997 8.67977 9.15997C8.83977 9.15997 8.98977 9.16999 9.15977 9.17999C12.1898 9.40999 14.6098 11.83 14.8398 14.86C14.8398 15.01 14.8498 15.16 14.8498 15.33Z" stroke="url(#paint6_linear_161_4823)" strokeWidth="1.5" strokeMiterlimit="10" strokeLinecap="round" strokeLinejoin="round"/>
<path d="M21.4997 8.66998C21.4997 12.08 18.7397 14.84 15.3297 14.84H14.8397C14.6097 11.81 12.1897 9.38997 9.15967 9.15997V8.66998C9.15967 5.25998 11.9197 2.5 15.3297 2.5C18.7397 2.5 21.4997 5.25998 21.4997 8.66998Z" stroke="url(#paint7_linear_161_4823)" strokeWidth="1.5" strokeMiterlimit="10" strokeLinecap="round" strokeLinejoin="round"/>
<defs>
<linearGradient id="paint0_linear_161_4823" x1="15.9234" y1="15.97" x2="23.6801" y2="19.3258" gradientUnits="userSpaceOnUse">
<stop stopColor="#FF4200"/>
<stop offset="1" stopColor="#FF8E4C"/>
</linearGradient>
<linearGradient id="paint1_linear_161_4823" x1="0.923438" y1="0.969971" x2="8.68006" y2="4.32584" gradientUnits="userSpaceOnUse">
<stop stopColor="#FF4200"/>
<stop offset="1" stopColor="#FF8E4C"/>
</linearGradient>
<linearGradient id="paint2_linear_161_4823" x1="6.57654" y1="13.07" x2="9.88018" y2="15.5618" gradientUnits="userSpaceOnUse">
<stop stopColor="#FF4200"/>
<stop offset="1" stopColor="#FF8E4C"/>
</linearGradient>
<linearGradient id="paint3_linear_161_4823" x1="6.5703" y1="15.33" x2="9.96945" y2="18.2648" gradientUnits="userSpaceOnUse">
<stop stopColor="#FF4200"/>
<stop offset="1" stopColor="#FF8E4C"/>
</linearGradient>
<linearGradient id="paint4_linear_161_4823" x1="8.4085" y1="17.58" x2="9.55319" y2="18.0222" gradientUnits="userSpaceOnUse">
<stop stopColor="#FF4200"/>
<stop offset="1" stopColor="#FF8E4C"/>
</linearGradient>
<linearGradient id="paint5_linear_161_4823" x1="8.4085" y1="11.95" x2="9.55319" y2="12.3922" gradientUnits="userSpaceOnUse">
<stop stopColor="#FF4200"/>
<stop offset="1" stopColor="#FF8E4C"/>
</linearGradient>
<linearGradient id="paint6_linear_161_4823" x1="2.3748" y1="9.15997" x2="16.0486" y2="15.0759" gradientUnits="userSpaceOnUse">
<stop stopColor="#FF4200"/>
<stop offset="1" stopColor="#FF8E4C"/>
</linearGradient>
<linearGradient id="paint7_linear_161_4823" x1="9.0247" y1="2.5" x2="22.6985" y2="8.41591" gradientUnits="userSpaceOnUse">
<stop stopColor="#FF4200"/>
<stop offset="1" stopColor="#FF8E4C"/>
</linearGradient>
</defs>
</svg>
