<svg width="24" height="24" viewBox="0 0 24 24" fill="none" xmlns="http://www.w3.org/2000/svg">
<rect x="0.75" y="0.75" width="22.5" height="22.5" rx="11.25" stroke="#FBFBFD" strokeWidth="1.5"/>
<path d="M8 9.31308C8 8.81113 8.16266 8.30255 8.48798 7.78735C8.8133 7.27214 9.28796 6.84544 9.91198 6.50725C10.536 6.16926 11.264 6.00018 12.0959 6C12.8691 6 13.5518 6.14136 14.1439 6.42407C14.736 6.70678 15.1934 7.0912 15.516 7.57733C15.8333 8.04606 16.0018 8.59809 16 9.16247C16 9.6116 15.9079 10.0053 15.7238 10.3435C15.5511 10.6666 15.3299 10.9619 15.0678 11.2192C14.8145 11.465 14.3598 11.8785 13.7039 12.4597C13.5506 12.5956 13.405 12.7398 13.2679 12.8916C13.1731 12.9952 13.0912 13.1097 13.0239 13.2326C12.9722 13.3313 12.9307 13.4348 12.8999 13.5417C12.8705 13.6448 12.8265 13.8258 12.7679 14.0846C12.6665 14.6342 12.3492 14.909 11.816 14.9089C11.6871 14.9122 11.5588 14.89 11.4387 14.8438C11.3185 14.7975 11.2088 14.728 11.1159 14.6394C10.9266 14.46 10.8319 14.1931 10.832 13.8389C10.832 13.3951 10.9013 13.0107 11.0399 12.6859C11.1722 12.3707 11.359 12.0809 11.5919 11.8294C11.8861 11.5221 12.1958 11.2298 12.5199 10.9536C12.8612 10.6578 13.1079 10.4345 13.2599 10.2839C13.4109 10.1346 13.5402 9.96523 13.6439 9.78058C13.7476 9.59656 13.8014 9.389 13.7998 9.17822C13.803 8.97643 13.7621 8.77635 13.6799 8.59167C13.5978 8.407 13.4763 8.24209 13.3239 8.10822C13.0065 7.81774 12.5972 7.67243 12.0959 7.67231C11.5092 7.67231 11.0773 7.81887 10.8 8.11199C10.5227 8.40511 10.288 8.83706 10.0959 9.40784C9.91457 10.0053 9.5706 10.304 9.06399 10.304C8.92293 10.3068 8.78283 10.2804 8.65265 10.2265C8.52247 10.1726 8.40507 10.0924 8.30798 9.99096C8.10266 9.78215 8 9.5562 8 9.31308ZM11.904 17.9999C11.5905 18.0043 11.2867 17.8926 11.052 17.6868C10.8092 17.4781 10.6879 17.1862 10.688 16.811C10.6846 16.6544 10.7141 16.4989 10.7747 16.3542C10.8353 16.2096 10.9256 16.079 11.0399 15.9708C11.1534 15.8594 11.2884 15.7718 11.4369 15.7132C11.5854 15.6546 11.7442 15.6263 11.904 15.6299C12.0611 15.6276 12.2172 15.6566 12.3628 15.7152C12.5085 15.7737 12.6408 15.8607 12.7519 15.9708C12.863 16.0809 12.9507 16.212 13.0098 16.3564C13.0689 16.5007 13.0981 16.6553 13.0958 16.811C13.0958 17.1809 12.9758 17.4715 12.7357 17.6828C12.509 17.8891 12.2118 18.0024 11.904 17.9999Z" fill="#FBFBFD"/>
</svg>
