<svg width="24" height="24" viewBox="0 0 24 24" fill="none" xmlns="http://www.w3.org/2000/svg">
<path d="M3.54098 11.0612H10.947V3.65522H3.54098V11.0612ZM5.04094 5.15517H9.447V9.56123H5.04094V5.15517ZM20.2292 20.3434H12.2412V17.987H13.7412V18.8434H15.4859V17.987H16.9858V18.8434H18.7292V17.987H20.2292V20.3434V20.3434ZM13.7412 16.2013H12.2413V12.3555H17.5712V13.8555H13.7412V16.2013ZM24 3.09244V8.90541H22.5V3.09248C22.5 2.21438 21.7851 1.5 20.9062 1.5H15.0932V0H20.9062C22.6121 0 24 1.38722 24 3.09244ZM1.49991 8.90541H0V3.09248C0 1.38727 1.38787 0 3.0938 0H8.90681V1.49995H3.09384C2.21494 1.49995 1.49995 2.21433 1.49995 3.09244L1.49991 8.90541ZM3.0938 22.4987H8.90681V23.9986H3.09384C1.38787 23.9986 0 22.6108 0 20.9048V15.0931H1.49991V20.9048C1.49991 21.7837 2.21494 22.4987 3.0938 22.4987ZM22.5 15.0931H24V20.9048C24 22.6107 22.6121 23.9986 20.9062 23.9986H15.0932V22.4986H20.9062C21.7851 22.4986 22.5 21.7837 22.5 20.9048V15.0931ZM3.54098 20.3434H10.947V12.9374H3.54098V20.3434ZM5.04094 14.4374H9.447V18.8435H5.04094V14.4374ZM20.2292 3.65517H12.8232V11.0612H20.2292V3.65517ZM18.7292 9.56123H14.3231V5.15517H18.7292L18.7292 9.56123ZM14.8992 15.4513H20.2292V16.9512H14.8992L14.8992 15.4513ZM20.2292 13.9619H18.7292V12.3555H20.2292V13.9619ZM6.52908 15.9255H7.95895V17.3553H6.52908V15.9255ZM6.52908 6.64327H7.95895V8.07309H6.52908V6.64327ZM17.2412 8.07309H15.8113V6.64327H17.2412V8.07309Z" fill="#FBFBFD"/>
</svg>
