<svg width="24" height="24" viewBox="0 0 24 24" fill="none" xmlns="http://www.w3.org/2000/svg">
<path fillRule="evenodd" clipRule="evenodd" d="M2.03739 11.2933C8.23887 8.59141 12.3742 6.81016 14.4433 5.94955C20.351 3.49233 21.5786 3.06548 22.3787 3.05139C22.5547 3.04829 22.9481 3.0919 23.203 3.29872C23.4182 3.47334 23.4774 3.70924 23.5058 3.87481C23.5341 4.04038 23.5694 4.41755 23.5413 4.71225C23.2212 8.076 21.8359 16.2389 21.1312 20.0064C20.833 21.6005 20.2458 22.135 19.6774 22.1873C18.442 22.301 17.504 21.3709 16.3075 20.5866C14.4352 19.3593 13.3774 18.5953 11.5601 17.3977C9.45976 16.0136 10.8213 15.2529 12.0183 14.0097C12.3315 13.6843 17.7745 8.7335 17.8799 8.28438C17.893 8.22821 17.9053 8.01884 17.7809 7.90828C17.6565 7.79772 17.4729 7.83553 17.3404 7.8656C17.1527 7.90822 14.1616 9.88516 8.3674 13.7964C7.51841 14.3794 6.74943 14.6635 6.06044 14.6486C5.30089 14.6322 3.83981 14.2191 2.75365 13.866C1.42144 13.433 0.362616 13.204 0.454816 12.4686C0.502839 12.0855 1.03036 11.6937 2.03739 11.2933Z" fill="#FBFBFD"/>
</svg>
